<?xml version="1.0" encoding="UTF-8"?>
<!DOCTYPE svg PUBLIC "-//W3C//DTD SVG 1.1//EN" "http://www.w3.org/Graphics/SVG/1.1/DTD/svg11.dtd">
<!-- Creator: CorelDRAW X8 -->
<svg xmlns="http://www.w3.org/2000/svg" xml:space="preserve" width="800px" height="600px" version="1.1" shape-rendering="geometricPrecision" text-rendering="geometricPrecision" image-rendering="optimizeQuality" fill-rule="evenodd" clip-rule="evenodd"
viewBox="0 0 800 600"
 xmlns:xlink="http://www.w3.org/1999/xlink">
 <g id="base">
  <metadata id="CorelCorpID_0Corel-Layer"/>
  <polygon fill="#35AD0E" points="257,159 601,240 556,436 211,355 "/>
  <g id="_2070014205040">
   <polygon fill="#63D13E" points="251,151 599,233 553,431 204,350 "/>
   <g>
    <line fill="none" stroke="#96ED79" stroke-width="0.300001" x1="255" y1="152" x2="208" y2= "351" />
    <line fill="none" stroke="#96ED79" stroke-width="0.300001" x1="260" y1="153" x2="213" y2= "352" />
    <line fill="none" stroke="#96ED79" stroke-width="0.300001" x1="264" y1="154" x2="217" y2= "353" />
    <line fill="none" stroke="#96ED79" stroke-width="0.300001" x1="270" y1="155" x2="223" y2= "354" />
    <line fill="none" stroke="#96ED79" stroke-width="0.300001" x1="275" y1="156" x2="228" y2= "356" />
    <line fill="none" stroke="#96ED79" stroke-width="0.300001" x1="279" y1="157" x2="231" y2= "356" />
    <line fill="none" stroke="#96ED79" stroke-width="0.300001" x1="280" y1="157" x2="233" y2= "357" />
    <line fill="none" stroke="#96ED79" stroke-width="0.300001" x1="285" y1="159" x2="238" y2= "358" />
    <line fill="none" stroke="#96ED79" stroke-width="0.300001" x1="288" y1="160" x2="241" y2= "359" />
    <line fill="none" stroke="#96ED79" stroke-width="0.300001" x1="298" y1="162" x2="251" y2= "361" />
    <line fill="none" stroke="#96ED79" stroke-width="0.300001" x1="303" y1="163" x2="256" y2= "362" />
    <line fill="none" stroke="#96ED79" stroke-width="0.300001" x1="307" y1="164" x2="260" y2= "363" />
    <line fill="none" stroke="#96ED79" stroke-width="0.300001" x1="312" y1="165" x2="265" y2= "364" />
    <line fill="none" stroke="#96ED79" stroke-width="0.300001" x1="317" y1="166" x2="270" y2= "365" />
    <line fill="none" stroke="#96ED79" stroke-width="0.300001" x1="321" y1="167" x2="273" y2= "366" />
    <line fill="none" stroke="#96ED79" stroke-width="0.300001" x1="326" y1="168" x2="278" y2= "367" />
    <line fill="none" stroke="#96ED79" stroke-width="0.300001" x1="331" y1="170" x2="284" y2= "369" />
    <line fill="none" stroke="#96ED79" stroke-width="0.300001" x1="334" y1="170" x2="287" y2= "369" />
    <line fill="none" stroke="#96ED79" stroke-width="0.300001" x1="338" y1="171" x2="291" y2= "370" />
    <line fill="none" stroke="#96ED79" stroke-width="0.300001" x1="343" y1="172" x2="296" y2= "372" />
    <line fill="none" stroke="#96ED79" stroke-width="0.300001" x1="347" y1="173" x2="300" y2= "372" />
    <line fill="none" stroke="#96ED79" stroke-width="0.300001" x1="351" y1="174" x2="304" y2= "373" />
    <line fill="none" stroke="#96ED79" stroke-width="0.300001" x1="356" y1="176" x2="309" y2= "375" />
    <line fill="none" stroke="#96ED79" stroke-width="0.300001" x1="360" y1="176" x2="313" y2= "375" />
    <line fill="none" stroke="#96ED79" stroke-width="0.300001" x1="365" y1="178" x2="318" y2= "377" />
    <line fill="none" stroke="#96ED79" stroke-width="0.300001" x1="371" y1="179" x2="323" y2= "378" />
    <line fill="none" stroke="#96ED79" stroke-width="0.300001" x1="374" y1="180" x2="327" y2= "379" />
    <line fill="none" stroke="#96ED79" stroke-width="0.300001" x1="357" y1="176" x2="310" y2= "375" />
    <line fill="none" stroke="#96ED79" stroke-width="0.300001" x1="362" y1="177" x2="315" y2= "376" />
    <line fill="none" stroke="#96ED79" stroke-width="0.300001" x1="366" y1="178" x2="319" y2= "377" />
    <line fill="none" stroke="#96ED79" stroke-width="0.300001" x1="372" y1="179" x2="325" y2= "378" />
    <line fill="none" stroke="#96ED79" stroke-width="0.300001" x1="377" y1="180" x2="330" y2= "379" />
    <line fill="none" stroke="#96ED79" stroke-width="0.300001" x1="380" y1="181" x2="333" y2= "380" />
    <line fill="none" stroke="#96ED79" stroke-width="0.300001" x1="382" y1="182" x2="334" y2= "381" />
    <line fill="none" stroke="#96ED79" stroke-width="0.300001" x1="387" y1="183" x2="340" y2= "382" />
    <line fill="none" stroke="#96ED79" stroke-width="0.300001" x1="390" y1="184" x2="343" y2= "383" />
    <line fill="none" stroke="#96ED79" stroke-width="0.300001" x1="400" y1="186" x2="353" y2= "385" />
    <line fill="none" stroke="#96ED79" stroke-width="0.300001" x1="405" y1="187" x2="358" y2= "386" />
    <line fill="none" stroke="#96ED79" stroke-width="0.300001" x1="408" y1="188" x2="361" y2= "387" />
    <line fill="none" stroke="#96ED79" stroke-width="0.300001" x1="414" y1="189" x2="367" y2= "388" />
    <line fill="none" stroke="#96ED79" stroke-width="0.300001" x1="419" y1="191" x2="372" y2= "389" />
    <line fill="none" stroke="#96ED79" stroke-width="0.300001" x1="422" y1="194" x2="375" y2= "390" />
    <line fill="none" stroke="#96ED79" stroke-width="0.300001" x1="427" y1="192" x2="380" y2= "391" />
    <line fill="none" stroke="#96ED79" stroke-width="0.300001" x1="433" y1="194" x2="386" y2= "392" />
    <line fill="none" stroke="#96ED79" stroke-width="0.300001" x1="436" y1="197" x2="389" y2= "393" />
    <line fill="none" stroke="#96ED79" stroke-width="0.300001" x1="440" y1="195" x2="393" y2= "394" />
    <line fill="none" stroke="#96ED79" stroke-width="0.300001" x1="445" y1="199" x2="398" y2= "395" />
    <line fill="none" stroke="#96ED79" stroke-width="0.300001" x1="448" y1="201" x2="402" y2= "396" />
    <line fill="none" stroke="#96ED79" stroke-width="0.300001" x1="453" y1="198" x2="406" y2= "397" />
    <line fill="none" stroke="#96ED79" stroke-width="0.300001" x1="458" y1="200" x2="411" y2= "398" />
    <line fill="none" stroke="#96ED79" stroke-width="0.300001" x1="462" y1="200" x2="415" y2= "399" />
    <line fill="none" stroke="#96ED79" stroke-width="0.300001" x1="467" y1="202" x2="420" y2= "400" />
    <line fill="none" stroke="#96ED79" stroke-width="0.300001" x1="472" y1="203" x2="425" y2= "402" />
    <line fill="none" stroke="#96ED79" stroke-width="0.300001" x1="476" y1="204" x2="429" y2= "403" />
    <line fill="none" stroke="#96ED79" stroke-width="0.300001" x1="471" y1="203" x2="424" y2= "401" />
    <line fill="none" stroke="#96ED79" stroke-width="0.300001" x1="476" y1="204" x2="429" y2= "403" />
    <line fill="none" stroke="#96ED79" stroke-width="0.300001" x1="480" y1="205" x2="433" y2= "403" />
    <line fill="none" stroke="#96ED79" stroke-width="0.300001" x1="486" y1="206" x2="439" y2= "405" />
    <line fill="none" stroke="#96ED79" stroke-width="0.300001" x1="491" y1="207" x2="444" y2= "406" />
    <line fill="none" stroke="#96ED79" stroke-width="0.300001" x1="494" y1="208" x2="447" y2= "407" />
    <line fill="none" stroke="#96ED79" stroke-width="0.300001" x1="495" y1="208" x2="448" y2= "407" />
    <line fill="none" stroke="#96ED79" stroke-width="0.300001" x1="501" y1="210" x2="454" y2= "408" />
    <line fill="none" stroke="#96ED79" stroke-width="0.300001" x1="504" y1="210" x2="457" y2= "409" />
    <line fill="none" stroke="#96ED79" stroke-width="0.300001" x1="514" y1="213" x2="467" y2= "411" />
    <line fill="none" stroke="#96ED79" stroke-width="0.300001" x1="519" y1="214" x2="472" y2= "413" />
    <line fill="none" stroke="#96ED79" stroke-width="0.300001" x1="522" y1="215" x2="475" y2= "413" />
    <line fill="none" stroke="#96ED79" stroke-width="0.300001" x1="527" y1="216" x2="481" y2= "415" />
    <line fill="none" stroke="#96ED79" stroke-width="0.300001" x1="533" y1="217" x2="486" y2= "416" />
    <line fill="none" stroke="#96ED79" stroke-width="0.300001" x1="536" y1="218" x2="489" y2= "417" />
    <line fill="none" stroke="#96ED79" stroke-width="0.300001" x1="541" y1="219" x2="494" y2= "418" />
    <line fill="none" stroke="#96ED79" stroke-width="0.300001" x1="547" y1="221" x2="500" y2= "419" />
    <line fill="none" stroke="#96ED79" stroke-width="0.300001" x1="550" y1="221" x2="503" y2= "420" />
    <line fill="none" stroke="#96ED79" stroke-width="0.300001" x1="554" y1="222" x2="507" y2= "421" />
    <line fill="none" stroke="#96ED79" stroke-width="0.300001" x1="559" y1="223" x2="512" y2= "422" />
    <line fill="none" stroke="#96ED79" stroke-width="0.300001" x1="563" y1="224" x2="516" y2= "423" />
    <line fill="none" stroke="#96ED79" stroke-width="0.300001" x1="567" y1="225" x2="520" y2= "424" />
    <line fill="none" stroke="#96ED79" stroke-width="0.300001" x1="572" y1="227" x2="525" y2= "425" />
    <line fill="none" stroke="#96ED79" stroke-width="0.300001" x1="575" y1="227" x2="529" y2= "426" />
    <line fill="none" stroke="#96ED79" stroke-width="0.300001" x1="581" y1="229" x2="534" y2= "427" />
    <line fill="none" stroke="#96ED79" stroke-width="0.300001" x1="586" y1="230" x2="539" y2= "428" />
    <line fill="none" stroke="#96ED79" stroke-width="0.300001" x1="590" y1="231" x2="543" y2= "429" />
    <line fill="none" stroke="#96ED79" stroke-width="0.300001" x1="595" y1="232" x2="549" y2= "430" />
    <line fill="none" stroke="#96ED79" stroke-width="0.300001" x1="598" y1="237" x2="250" y2= "155" />
    <line fill="none" stroke="#96ED79" stroke-width="0.300001" x1="597" y1="244" x2="248" y2= "162" />
    <line fill="none" stroke="#96ED79" stroke-width="0.300001" x1="596" y1="249" x2="247" y2= "166" />
    <line fill="none" stroke="#96ED79" stroke-width="0.300001" x1="594" y1="257" x2="245" y2= "175" />
    <line fill="none" stroke="#96ED79" stroke-width="0.300001" x1="592" y1="264" x2="243" y2= "182" />
    <line fill="none" stroke="#96ED79" stroke-width="0.300001" x1="590" y1="274" x2="241" y2= "192" />
    <line fill="none" stroke="#96ED79" stroke-width="0.300001" x1="591" y1="270" x2="242" y2= "187" />
    <line fill="none" stroke="#96ED79" stroke-width="0.300001" x1="588" y1="282" x2="239" y2= "199" />
    <line fill="none" stroke="#96ED79" stroke-width="0.300001" x1="588" y1="282" x2="239" y2= "199" />
    <line fill="none" stroke="#96ED79" stroke-width="0.300001" x1="586" y1="289" x2="237" y2= "207" />
    <line fill="none" stroke="#96ED79" stroke-width="0.300001" x1="585" y1="294" x2="236" y2= "211" />
    <line fill="none" stroke="#96ED79" stroke-width="0.300001" x1="583" y1="302" x2="234" y2= "219" />
    <line fill="none" stroke="#96ED79" stroke-width="0.300001" x1="582" y1="309" x2="233" y2= "226" />
    <line fill="none" stroke="#96ED79" stroke-width="0.300001" x1="579" y1="319" x2="230" y2= "236" />
    <line fill="none" stroke="#96ED79" stroke-width="0.300001" x1="580" y1="315" x2="231" y2= "232" />
    <line fill="none" stroke="#96ED79" stroke-width="0.300001" x1="577" y1="327" x2="229" y2= "244" />
    <line fill="none" stroke="#96ED79" stroke-width="0.300001" x1="577" y1="329" x2="228" y2= "246" />
    <line fill="none" stroke="#96ED79" stroke-width="0.300001" x1="575" y1="336" x2="226" y2= "254" />
    <line fill="none" stroke="#96ED79" stroke-width="0.300001" x1="574" y1="341" x2="225" y2= "258" />
    <line fill="none" stroke="#96ED79" stroke-width="0.300001" x1="572" y1="349" x2="223" y2= "266" />
    <line fill="none" stroke="#96ED79" stroke-width="0.300001" x1="571" y1="356" x2="222" y2= "273" />
    <line fill="none" stroke="#96ED79" stroke-width="0.300001" x1="568" y1="366" x2="219" y2= "283" />
    <line fill="none" stroke="#96ED79" stroke-width="0.300001" x1="569" y1="362" x2="220" y2= "279" />
    <line fill="none" stroke="#96ED79" stroke-width="0.300001" x1="566" y1="374" x2="218" y2= "291" />
    <line fill="none" stroke="#96ED79" stroke-width="0.300001" x1="565" y1="380" x2="216" y2= "298" />
    <line fill="none" stroke="#96ED79" stroke-width="0.300001" x1="563" y1="388" x2="214" y2= "305" />
    <line fill="none" stroke="#96ED79" stroke-width="0.300001" x1="562" y1="392" x2="213" y2= "310" />
    <line fill="none" stroke="#96ED79" stroke-width="0.300001" x1="560" y1="400" x2="211" y2= "318" />
    <line fill="none" stroke="#96ED79" stroke-width="0.300001" x1="558" y1="407" x2="210" y2= "325" />
    <line fill="none" stroke="#96ED79" stroke-width="0.300001" x1="556" y1="417" x2="207" y2= "335" />
    <line fill="none" stroke="#96ED79" stroke-width="0.300001" x1="557" y1="413" x2="208" y2= "331" />
    <line fill="none" stroke="#96ED79" stroke-width="0.300001" x1="554" y1="425" x2="205" y2= "343" />
   </g>
  </g>
  <path fill="white" fill-rule="nonzero" d="M554 319c3,1 4,4 4,7 -1,3 -4,5 -7,4l-290 -67c-3,0 -5,-3 -4,-6 1,-3 4,-5 7,-5l290 67z"/>
 </g>
 <g id="landmarks-mz11">
  <metadata id="CorelCorpID_1Corel-Layer"/>
  <polygon id="m11lote3" fill="#35AD0E" points="464,334 496,342 482,407 449,400 "/>
  <polygon id="m11lote4" fill="#35AD0E" points="431,327 463,334 448,400 415,392 "/>
  <polygon id="m11lote5" fill="#35AD0E" points="429,326 397,319 381,384 414,392 "/>
  <polygon id="m11lote6" fill="#35AD0E" points="363,311 395,318 380,384 348,377 "/>
  <polygon id="m11lote7" fill="#35AD0E" points="361,311 329,303 314,369 346,376 "/>
  <polygon id="m11lote8" fill="#35AD0E" points="327,303 295,295 280,361 312,368 "/>
  <polygon id="m11lote9" fill="#35AD0E" points="294,295 262,288 246,353 279,360 "/>
  <polygon id="m11lote10" fill="#35AD0E" points="260,287 228,279 213,345 245,353 "/>
  <polygon id="m11lote11" fill="#35AD0E" points="289,165 257,158 241,224 273,231 "/>
  <polygon id="m11lote12" fill="#35AD0E" points="322,173 290,166 275,231 307,239 "/>
  <path id="m11lote13" fill="#35AD0E" d="M356 181l-32 -7 -15 65 32 8c0,0 15,-66 15,-66z"/>
  <polygon id="m11lote14" fill="#35AD0E" points="390,189 358,182 343,247 375,255 "/>
  <polygon id="m11lote15" fill="#35AD0E" points="424,197 391,189 376,255 408,263 "/>
  <polygon id="m11lote16" fill="#35AD0E" points="457,205 425,197 410,263 442,271 "/>
  <polygon id="m11lote17" fill="#35AD0E" points="491,213 459,205 444,271 476,278 "/>
  <polygon id="m11lote18" fill="#35AD0E" points="525,221 493,213 477,279 509,286 "/>
  <polygon id="m11lote19" fill="#35AD0E" points="519,255 511,286 577,302 584,270 "/>
  <polygon id="m11lote20" fill="#35AD0E" points="519,253 527,221 592,236 585,268 "/>
  <polygon id="m11lote1" fill="#35AD0E" points="556,391 549,424 482,408 490,376 "/>
  <polygon id="m11lote2" fill="#35AD0E" points="557,390 564,357 498,342 491,374 "/>
 </g>
</svg>
