<?xml version="1.0" encoding="UTF-8"?>
<!DOCTYPE svg PUBLIC "-//W3C//DTD SVG 1.1//EN" "http://www.w3.org/Graphics/SVG/1.1/DTD/svg11.dtd">
<!-- Creator: CorelDRAW X8 -->
<svg xmlns="http://www.w3.org/2000/svg" xml:space="preserve" width="800px" height="600px" version="1.1" shape-rendering="geometricPrecision" text-rendering="geometricPrecision" image-rendering="optimizeQuality" fill-rule="evenodd" clip-rule="evenodd"
viewBox="0 0 800 600"
 xmlns:xlink="http://www.w3.org/1999/xlink">
 <g id="base">
  <metadata id="CorelCorpID_0Corel-Layer"/>
  <g id="_2069999985344">
   <polygon fill="#35AD0E" points="257,161 604,243 558,441 210,360 "/>
   <g>
    <polygon fill="#63D13E" points="250,153 602,236 555,436 203,354 "/>
    <g>
     <line fill="none" stroke="#96ED79" stroke-width="0.300001" x1="254" y1="154" x2="207" y2= "355" />
     <line fill="none" stroke="#96ED79" stroke-width="0.300001" x1="260" y1="155" x2="212" y2= "356" />
     <line fill="none" stroke="#96ED79" stroke-width="0.300001" x1="263" y1="156" x2="216" y2= "357" />
     <line fill="none" stroke="#96ED79" stroke-width="0.300001" x1="269" y1="157" x2="222" y2= "358" />
     <line fill="none" stroke="#96ED79" stroke-width="0.300001" x1="275" y1="159" x2="227" y2= "360" />
     <line fill="none" stroke="#96ED79" stroke-width="0.300001" x1="278" y1="159" x2="231" y2= "361" />
     <line fill="none" stroke="#96ED79" stroke-width="0.300001" x1="279" y1="160" x2="232" y2= "361" />
     <line fill="none" stroke="#96ED79" stroke-width="0.300001" x1="285" y1="161" x2="237" y2= "362" />
     <line fill="none" stroke="#96ED79" stroke-width="0.300001" x1="288" y1="162" x2="241" y2= "363" />
     <line fill="none" stroke="#96ED79" stroke-width="0.300001" x1="298" y1="164" x2="250" y2= "365" />
     <line fill="none" stroke="#96ED79" stroke-width="0.300001" x1="303" y1="165" x2="255" y2= "366" />
     <line fill="none" stroke="#96ED79" stroke-width="0.300001" x1="306" y1="166" x2="259" y2= "367" />
     <line fill="none" stroke="#96ED79" stroke-width="0.300001" x1="312" y1="167" x2="264" y2= "368" />
     <line fill="none" stroke="#96ED79" stroke-width="0.300001" x1="317" y1="169" x2="269" y2= "370" />
     <line fill="none" stroke="#96ED79" stroke-width="0.300001" x1="320" y1="169" x2="273" y2= "370" />
     <line fill="none" stroke="#96ED79" stroke-width="0.300001" x1="326" y1="171" x2="278" y2= "372" />
     <line fill="none" stroke="#96ED79" stroke-width="0.300001" x1="331" y1="172" x2="283" y2= "373" />
     <line fill="none" stroke="#96ED79" stroke-width="0.300001" x1="334" y1="173" x2="287" y2= "374" />
     <line fill="none" stroke="#96ED79" stroke-width="0.300001" x1="338" y1="174" x2="291" y2= "375" />
     <line fill="none" stroke="#96ED79" stroke-width="0.300001" x1="344" y1="175" x2="296" y2= "376" />
     <line fill="none" stroke="#96ED79" stroke-width="0.300001" x1="347" y1="176" x2="300" y2= "377" />
     <line fill="none" stroke="#96ED79" stroke-width="0.300001" x1="351" y1="177" x2="304" y2= "378" />
     <line fill="none" stroke="#96ED79" stroke-width="0.300001" x1="357" y1="178" x2="309" y2= "379" />
     <line fill="none" stroke="#96ED79" stroke-width="0.300001" x1="360" y1="179" x2="313" y2= "380" />
     <line fill="none" stroke="#96ED79" stroke-width="0.300001" x1="366" y1="180" x2="318" y2= "381" />
     <line fill="none" stroke="#96ED79" stroke-width="0.300001" x1="371" y1="181" x2="323" y2= "382" />
     <line fill="none" stroke="#96ED79" stroke-width="0.300001" x1="374" y1="182" x2="327" y2= "383" />
     <line fill="none" stroke="#96ED79" stroke-width="0.300001" x1="357" y1="178" x2="310" y2= "379" />
     <line fill="none" stroke="#96ED79" stroke-width="0.300001" x1="363" y1="179" x2="315" y2= "380" />
     <line fill="none" stroke="#96ED79" stroke-width="0.300001" x1="366" y1="180" x2="319" y2= "381" />
     <line fill="none" stroke="#96ED79" stroke-width="0.300001" x1="372" y1="182" x2="325" y2= "382" />
     <line fill="none" stroke="#96ED79" stroke-width="0.300001" x1="377" y1="183" x2="330" y2= "384" />
     <line fill="none" stroke="#96ED79" stroke-width="0.300001" x1="381" y1="184" x2="333" y2= "385" />
     <line fill="none" stroke="#96ED79" stroke-width="0.300001" x1="382" y1="184" x2="335" y2= "385" />
     <line fill="none" stroke="#96ED79" stroke-width="0.300001" x1="387" y1="185" x2="340" y2= "386" />
     <line fill="none" stroke="#96ED79" stroke-width="0.300001" x1="391" y1="186" x2="343" y2= "387" />
     <line fill="none" stroke="#96ED79" stroke-width="0.300001" x1="400" y1="188" x2="353" y2= "389" />
     <line fill="none" stroke="#96ED79" stroke-width="0.300001" x1="406" y1="190" x2="358" y2= "390" />
     <line fill="none" stroke="#96ED79" stroke-width="0.300001" x1="409" y1="190" x2="362" y2= "391" />
     <line fill="none" stroke="#96ED79" stroke-width="0.300001" x1="414" y1="192" x2="367" y2= "392" />
     <line fill="none" stroke="#96ED79" stroke-width="0.300001" x1="420" y1="194" x2="372" y2= "394" />
     <line fill="none" stroke="#96ED79" stroke-width="0.300001" x1="423" y1="196" x2="376" y2= "394" />
     <line fill="none" stroke="#96ED79" stroke-width="0.300001" x1="428" y1="195" x2="381" y2= "396" />
     <line fill="none" stroke="#96ED79" stroke-width="0.300001" x1="434" y1="197" x2="386" y2= "397" />
     <line fill="none" stroke="#96ED79" stroke-width="0.300001" x1="437" y1="199" x2="390" y2= "398" />
     <line fill="none" stroke="#96ED79" stroke-width="0.300001" x1="441" y1="198" x2="394" y2= "399" />
     <line fill="none" stroke="#96ED79" stroke-width="0.300001" x1="446" y1="202" x2="399" y2= "400" />
     <line fill="none" stroke="#96ED79" stroke-width="0.300001" x1="449" y1="204" x2="402" y2= "401" />
     <line fill="none" stroke="#96ED79" stroke-width="0.300001" x1="454" y1="201" x2="407" y2= "402" />
     <line fill="none" stroke="#96ED79" stroke-width="0.300001" x1="459" y1="202" x2="412" y2= "403" />
     <line fill="none" stroke="#96ED79" stroke-width="0.300001" x1="463" y1="203" x2="415" y2= "404" />
     <line fill="none" stroke="#96ED79" stroke-width="0.300001" x1="468" y1="204" x2="421" y2= "405" />
     <line fill="none" stroke="#96ED79" stroke-width="0.300001" x1="474" y1="206" x2="426" y2= "406" />
     <line fill="none" stroke="#96ED79" stroke-width="0.300001" x1="477" y1="207" x2="430" y2= "407" />
     <line fill="none" stroke="#96ED79" stroke-width="0.300001" x1="472" y1="205" x2="425" y2= "406" />
     <line fill="none" stroke="#96ED79" stroke-width="0.300001" x1="478" y1="207" x2="430" y2= "407" />
     <line fill="none" stroke="#96ED79" stroke-width="0.300001" x1="481" y1="207" x2="434" y2= "408" />
     <line fill="none" stroke="#96ED79" stroke-width="0.300001" x1="487" y1="209" x2="440" y2= "409" />
     <line fill="none" stroke="#96ED79" stroke-width="0.300001" x1="492" y1="210" x2="445" y2= "411" />
     <line fill="none" stroke="#96ED79" stroke-width="0.300001" x1="496" y1="211" x2="448" y2= "411" />
     <line fill="none" stroke="#96ED79" stroke-width="0.300001" x1="497" y1="211" x2="450" y2= "412" />
     <line fill="none" stroke="#96ED79" stroke-width="0.300001" x1="502" y1="212" x2="455" y2= "413" />
     <line fill="none" stroke="#96ED79" stroke-width="0.300001" x1="506" y1="213" x2="458" y2= "414" />
     <line fill="none" stroke="#96ED79" stroke-width="0.300001" x1="515" y1="215" x2="468" y2= "416" />
     <line fill="none" stroke="#96ED79" stroke-width="0.300001" x1="521" y1="217" x2="473" y2= "417" />
     <line fill="none" stroke="#96ED79" stroke-width="0.300001" x1="524" y1="218" x2="477" y2= "418" />
     <line fill="none" stroke="#96ED79" stroke-width="0.300001" x1="529" y1="219" x2="482" y2= "419" />
     <line fill="none" stroke="#96ED79" stroke-width="0.300001" x1="535" y1="220" x2="487" y2= "420" />
     <line fill="none" stroke="#96ED79" stroke-width="0.300001" x1="538" y1="221" x2="491" y2= "421" />
     <line fill="none" stroke="#96ED79" stroke-width="0.300001" x1="543" y1="222" x2="496" y2= "422" />
     <line fill="none" stroke="#96ED79" stroke-width="0.300001" x1="549" y1="223" x2="501" y2= "424" />
     <line fill="none" stroke="#96ED79" stroke-width="0.300001" x1="552" y1="224" x2="505" y2= "425" />
     <line fill="none" stroke="#96ED79" stroke-width="0.300001" x1="556" y1="225" x2="508" y2= "425" />
     <line fill="none" stroke="#96ED79" stroke-width="0.300001" x1="561" y1="226" x2="514" y2= "427" />
     <line fill="none" stroke="#96ED79" stroke-width="0.300001" x1="565" y1="227" x2="517" y2= "427" />
     <line fill="none" stroke="#96ED79" stroke-width="0.300001" x1="569" y1="228" x2="522" y2= "428" />
     <line fill="none" stroke="#96ED79" stroke-width="0.300001" x1="574" y1="229" x2="527" y2= "430" />
     <line fill="none" stroke="#96ED79" stroke-width="0.300001" x1="578" y1="230" x2="530" y2= "430" />
     <line fill="none" stroke="#96ED79" stroke-width="0.300001" x1="583" y1="232" x2="536" y2= "432" />
     <line fill="none" stroke="#96ED79" stroke-width="0.300001" x1="589" y1="233" x2="541" y2= "433" />
     <line fill="none" stroke="#96ED79" stroke-width="0.300001" x1="592" y1="234" x2="545" y2= "434" />
     <line fill="none" stroke="#96ED79" stroke-width="0.300001" x1="598" y1="235" x2="551" y2= "435" />
     <line fill="none" stroke="#96ED79" stroke-width="0.300001" x1="601" y1="240" x2="249" y2= "157" />
     <line fill="none" stroke="#96ED79" stroke-width="0.300001" x1="599" y1="247" x2="247" y2= "164" />
     <line fill="none" stroke="#96ED79" stroke-width="0.300001" x1="598" y1="252" x2="246" y2= "169" />
     <line fill="none" stroke="#96ED79" stroke-width="0.300001" x1="596" y1="260" x2="244" y2= "177" />
     <line fill="none" stroke="#96ED79" stroke-width="0.300001" x1="594" y1="267" x2="242" y2= "184" />
     <line fill="none" stroke="#96ED79" stroke-width="0.300001" x1="592" y1="277" x2="240" y2= "194" />
     <line fill="none" stroke="#96ED79" stroke-width="0.300001" x1="593" y1="273" x2="241" y2= "190" />
     <line fill="none" stroke="#96ED79" stroke-width="0.300001" x1="590" y1="285" x2="238" y2= "202" />
     <line fill="none" stroke="#96ED79" stroke-width="0.300001" x1="590" y1="285" x2="238" y2= "202" />
     <line fill="none" stroke="#96ED79" stroke-width="0.300001" x1="589" y1="292" x2="237" y2= "209" />
     <line fill="none" stroke="#96ED79" stroke-width="0.300001" x1="587" y1="297" x2="235" y2= "214" />
     <line fill="none" stroke="#96ED79" stroke-width="0.300001" x1="585" y1="305" x2="234" y2= "222" />
     <line fill="none" stroke="#96ED79" stroke-width="0.300001" x1="584" y1="312" x2="232" y2= "229" />
     <line fill="none" stroke="#96ED79" stroke-width="0.300001" x1="581" y1="323" x2="230" y2= "239" />
     <line fill="none" stroke="#96ED79" stroke-width="0.300001" x1="582" y1="318" x2="231" y2= "235" />
     <line fill="none" stroke="#96ED79" stroke-width="0.300001" x1="580" y1="331" x2="228" y2= "247" />
     <line fill="none" stroke="#96ED79" stroke-width="0.300001" x1="579" y1="333" x2="227" y2= "250" />
     <line fill="none" stroke="#96ED79" stroke-width="0.300001" x1="577" y1="340" x2="225" y2= "257" />
     <line fill="none" stroke="#96ED79" stroke-width="0.300001" x1="576" y1="345" x2="224" y2= "261" />
     <line fill="none" stroke="#96ED79" stroke-width="0.300001" x1="574" y1="353" x2="222" y2= "270" />
     <line fill="none" stroke="#96ED79" stroke-width="0.300001" x1="573" y1="360" x2="221" y2= "277" />
     <line fill="none" stroke="#96ED79" stroke-width="0.300001" x1="570" y1="370" x2="218" y2= "287" />
     <line fill="none" stroke="#96ED79" stroke-width="0.300001" x1="571" y1="366" x2="219" y2= "283" />
     <line fill="none" stroke="#96ED79" stroke-width="0.300001" x1="568" y1="378" x2="217" y2= "295" />
     <line fill="none" stroke="#96ED79" stroke-width="0.300001" x1="567" y1="385" x2="215" y2= "302" />
     <line fill="none" stroke="#96ED79" stroke-width="0.300001" x1="565" y1="392" x2="213" y2= "309" />
     <line fill="none" stroke="#96ED79" stroke-width="0.300001" x1="564" y1="397" x2="212" y2= "313" />
     <line fill="none" stroke="#96ED79" stroke-width="0.300001" x1="562" y1="405" x2="210" y2= "322" />
     <line fill="none" stroke="#96ED79" stroke-width="0.300001" x1="561" y1="412" x2="209" y2= "329" />
     <line fill="none" stroke="#96ED79" stroke-width="0.300001" x1="558" y1="422" x2="206" y2= "339" />
     <line fill="none" stroke="#96ED79" stroke-width="0.300001" x1="559" y1="418" x2="207" y2= "335" />
     <line fill="none" stroke="#96ED79" stroke-width="0.300001" x1="556" y1="430" x2="204" y2= "347" />
    </g>
   </g>
   <path fill="white" fill-rule="nonzero" d="M556 323c3,0 5,3 4,6 -1,3 -4,5 -7,5l-293 -68c-3,0 -4,-3 -4,-6 1,-3 4,-5 7,-5l293 68z"/>
  </g>
 </g>
 <g id="landmarks-mz12">
  <metadata id="CorelCorpID_1Corel-Layer"/>
  <polygon id="m12lote3" fill="#35AD0E" points="464,337 496,345 481,411 449,403 "/>
  <polygon id="m12lote4" fill="#35AD0E" points="431,330 463,337 447,403 415,395 "/>
  <polygon id="m12lote5" fill="#35AD0E" points="429,329 397,322 381,387 413,395 "/>
  <polygon id="m12lote6" fill="#35AD0E" points="363,314 395,321 380,387 348,380 "/>
  <polygon id="m12lote7" fill="#35AD0E" points="361,314 329,306 313,372 346,379 "/>
  <polygon id="m12lote8" fill="#35AD0E" points="327,306 295,298 280,364 312,371 "/>
  <polygon id="m12lote9" fill="#35AD0E" points="293,298 261,290 246,356 278,364 "/>
  <polygon id="m12lote10" fill="#35AD0E" points="260,290 227,282 212,348 244,356 "/>
  <polygon id="m12lote11" fill="#35AD0E" points="288,168 256,161 241,227 273,234 "/>
  <polygon id="m12lote12" fill="#35AD0E" points="322,176 290,169 275,234 307,242 "/>
  <path id="m12lote13" fill="#35AD0E" d="M356 184l-32 -8 -16 66 32 8c0,0 16,-66 16,-66z"/>
  <polygon id="m12lote14" fill="#35AD0E" points="390,192 358,184 342,250 374,258 "/>
  <polygon id="m12lote15" fill="#35AD0E" points="424,200 391,192 376,258 408,266 "/>
  <polygon id="m12lote16" fill="#35AD0E" points="457,208 425,200 410,266 442,274 "/>
  <polygon id="m12lote17" fill="#35AD0E" points="491,215 459,208 444,274 476,281 "/>
  <polygon id="m12lote18" fill="#35AD0E" points="525,223 493,216 477,282 509,289 "/>
  <polygon id="m12lote19" fill="#35AD0E" points="519,257 511,289 577,305 584,272 "/>
  <polygon id="m12lote20" fill="#35AD0E" points="519,256 527,224 593,239 585,271 "/>
  <polygon id="m12lote1" fill="#35AD0E" points="556,394 549,427 482,411 490,379 "/>
  <polygon id="m12lote2" fill="#35AD0E" points="557,393 564,361 498,345 491,378 "/>
 </g>
</svg>
