<?xml version="1.0" encoding="UTF-8"?>
<!DOCTYPE svg PUBLIC "-//W3C//DTD SVG 1.1//EN" "http://www.w3.org/Graphics/SVG/1.1/DTD/svg11.dtd">
<!-- Creator: CorelDRAW X8 -->
<svg xmlns="http://www.w3.org/2000/svg" xml:space="preserve" width="800px" height="600px" version="1.1" shape-rendering="geometricPrecision" text-rendering="geometricPrecision" image-rendering="optimizeQuality" fill-rule="evenodd" clip-rule="evenodd"
viewBox="0 0 800 600"
 xmlns:xlink="http://www.w3.org/1999/xlink">
 <g id="base">
  <metadata id="CorelCorpID_0Corel-Layer"/>
  <polygon fill="#35AD0E" points="264,167 621,251 573,454 216,371 "/>
  <g id="_2070004062432">
   <polygon fill="#63D13E" points="257,158 619,244 570,450 208,365 "/>
   <g>
    <line fill="none" stroke="#96ED79" stroke-width="0.300001" x1="261" y1="159" x2="213" y2= "366" />
    <line fill="none" stroke="#96ED79" stroke-width="0.300001" x1="267" y1="161" x2="218" y2= "368" />
    <line fill="none" stroke="#96ED79" stroke-width="0.300001" x1="271" y1="162" x2="222" y2= "368" />
    <line fill="none" stroke="#96ED79" stroke-width="0.300001" x1="277" y1="163" x2="228" y2= "370" />
    <line fill="none" stroke="#96ED79" stroke-width="0.300001" x1="282" y1="164" x2="233" y2= "371" />
    <line fill="none" stroke="#96ED79" stroke-width="0.300001" x1="286" y1="165" x2="237" y2= "372" />
    <line fill="none" stroke="#96ED79" stroke-width="0.300001" x1="287" y1="165" x2="238" y2= "372" />
    <line fill="none" stroke="#96ED79" stroke-width="0.300001" x1="292" y1="167" x2="244" y2= "373" />
    <line fill="none" stroke="#96ED79" stroke-width="0.300001" x1="296" y1="168" x2="247" y2= "374" />
    <line fill="none" stroke="#96ED79" stroke-width="0.300001" x1="306" y1="170" x2="257" y2= "377" />
    <line fill="none" stroke="#96ED79" stroke-width="0.300001" x1="311" y1="171" x2="262" y2= "378" />
    <line fill="none" stroke="#96ED79" stroke-width="0.300001" x1="315" y1="172" x2="266" y2= "379" />
    <line fill="none" stroke="#96ED79" stroke-width="0.300001" x1="320" y1="173" x2="271" y2= "380" />
    <line fill="none" stroke="#96ED79" stroke-width="0.300001" x1="326" y1="175" x2="277" y2= "381" />
    <line fill="none" stroke="#96ED79" stroke-width="0.300001" x1="329" y1="175" x2="281" y2= "382" />
    <line fill="none" stroke="#96ED79" stroke-width="0.300001" x1="335" y1="177" x2="286" y2= "383" />
    <line fill="none" stroke="#96ED79" stroke-width="0.300001" x1="340" y1="178" x2="291" y2= "385" />
    <line fill="none" stroke="#96ED79" stroke-width="0.300001" x1="344" y1="179" x2="295" y2= "385" />
    <line fill="none" stroke="#96ED79" stroke-width="0.300001" x1="348" y1="180" x2="299" y2= "386" />
    <line fill="none" stroke="#96ED79" stroke-width="0.300001" x1="353" y1="181" x2="304" y2= "388" />
    <line fill="none" stroke="#96ED79" stroke-width="0.300001" x1="357" y1="182" x2="308" y2= "388" />
    <line fill="none" stroke="#96ED79" stroke-width="0.300001" x1="361" y1="183" x2="312" y2= "389" />
    <line fill="none" stroke="#96ED79" stroke-width="0.300001" x1="366" y1="184" x2="318" y2= "391" />
    <line fill="none" stroke="#96ED79" stroke-width="0.300001" x1="370" y1="185" x2="321" y2= "392" />
    <line fill="none" stroke="#96ED79" stroke-width="0.300001" x1="376" y1="186" x2="327" y2= "393" />
    <line fill="none" stroke="#96ED79" stroke-width="0.300001" x1="381" y1="188" x2="332" y2= "394" />
    <line fill="none" stroke="#96ED79" stroke-width="0.300001" x1="385" y1="189" x2="336" y2= "395" />
    <line fill="none" stroke="#96ED79" stroke-width="0.300001" x1="367" y1="184" x2="318" y2= "391" />
    <line fill="none" stroke="#96ED79" stroke-width="0.300001" x1="373" y1="186" x2="324" y2= "392" />
    <line fill="none" stroke="#96ED79" stroke-width="0.300001" x1="376" y1="187" x2="327" y2= "393" />
    <line fill="none" stroke="#96ED79" stroke-width="0.300001" x1="382" y1="188" x2="334" y2= "394" />
    <line fill="none" stroke="#96ED79" stroke-width="0.300001" x1="388" y1="189" x2="339" y2= "396" />
    <line fill="none" stroke="#96ED79" stroke-width="0.300001" x1="391" y1="190" x2="343" y2= "397" />
    <line fill="none" stroke="#96ED79" stroke-width="0.300001" x1="393" y1="190" x2="344" y2= "397" />
    <line fill="none" stroke="#96ED79" stroke-width="0.300001" x1="398" y1="192" x2="349" y2= "398" />
    <line fill="none" stroke="#96ED79" stroke-width="0.300001" x1="402" y1="193" x2="353" y2= "399" />
    <line fill="none" stroke="#96ED79" stroke-width="0.300001" x1="411" y1="195" x2="363" y2= "401" />
    <line fill="none" stroke="#96ED79" stroke-width="0.300001" x1="417" y1="196" x2="368" y2= "403" />
    <line fill="none" stroke="#96ED79" stroke-width="0.300001" x1="421" y1="197" x2="372" y2= "403" />
    <line fill="none" stroke="#96ED79" stroke-width="0.300001" x1="426" y1="198" x2="377" y2= "405" />
    <line fill="none" stroke="#96ED79" stroke-width="0.300001" x1="431" y1="200" x2="383" y2= "406" />
    <line fill="none" stroke="#96ED79" stroke-width="0.300001" x1="434" y1="203" x2="386" y2= "407" />
    <line fill="none" stroke="#96ED79" stroke-width="0.300001" x1="440" y1="202" x2="391" y2= "408" />
    <line fill="none" stroke="#96ED79" stroke-width="0.300001" x1="446" y1="203" x2="397" y2= "409" />
    <line fill="none" stroke="#96ED79" stroke-width="0.300001" x1="449" y1="206" x2="401" y2= "410" />
    <line fill="none" stroke="#96ED79" stroke-width="0.300001" x1="453" y1="205" x2="404" y2= "411" />
    <line fill="none" stroke="#96ED79" stroke-width="0.300001" x1="458" y1="208" x2="410" y2= "412" />
    <line fill="none" stroke="#96ED79" stroke-width="0.300001" x1="461" y1="211" x2="414" y2= "413" />
    <line fill="none" stroke="#96ED79" stroke-width="0.300001" x1="467" y1="208" x2="418" y2= "414" />
    <line fill="none" stroke="#96ED79" stroke-width="0.300001" x1="472" y1="209" x2="423" y2= "415" />
    <line fill="none" stroke="#96ED79" stroke-width="0.300001" x1="476" y1="210" x2="427" y2= "416" />
    <line fill="none" stroke="#96ED79" stroke-width="0.300001" x1="481" y1="211" x2="433" y2= "418" />
    <line fill="none" stroke="#96ED79" stroke-width="0.300001" x1="487" y1="213" x2="438" y2= "419" />
    <line fill="none" stroke="#96ED79" stroke-width="0.300001" x1="490" y1="214" x2="442" y2= "420" />
    <line fill="none" stroke="#96ED79" stroke-width="0.300001" x1="485" y1="212" x2="437" y2= "418" />
    <line fill="none" stroke="#96ED79" stroke-width="0.300001" x1="491" y1="214" x2="442" y2= "420" />
    <line fill="none" stroke="#96ED79" stroke-width="0.300001" x1="494" y1="214" x2="446" y2= "421" />
    <line fill="none" stroke="#96ED79" stroke-width="0.300001" x1="500" y1="216" x2="452" y2= "422" />
    <line fill="none" stroke="#96ED79" stroke-width="0.300001" x1="506" y1="217" x2="457" y2= "423" />
    <line fill="none" stroke="#96ED79" stroke-width="0.300001" x1="510" y1="218" x2="461" y2= "424" />
    <line fill="none" stroke="#96ED79" stroke-width="0.300001" x1="511" y1="218" x2="462" y2= "424" />
    <line fill="none" stroke="#96ED79" stroke-width="0.300001" x1="516" y1="220" x2="468" y2= "426" />
    <line fill="none" stroke="#96ED79" stroke-width="0.300001" x1="520" y1="221" x2="471" y2= "427" />
    <line fill="none" stroke="#96ED79" stroke-width="0.300001" x1="530" y1="223" x2="481" y2= "429" />
    <line fill="none" stroke="#96ED79" stroke-width="0.300001" x1="535" y1="224" x2="486" y2= "430" />
    <line fill="none" stroke="#96ED79" stroke-width="0.300001" x1="539" y1="225" x2="490" y2= "431" />
    <line fill="none" stroke="#96ED79" stroke-width="0.300001" x1="544" y1="226" x2="495" y2= "432" />
    <line fill="none" stroke="#96ED79" stroke-width="0.300001" x1="550" y1="228" x2="501" y2= "433" />
    <line fill="none" stroke="#96ED79" stroke-width="0.300001" x1="553" y1="228" x2="504" y2= "434" />
    <line fill="none" stroke="#96ED79" stroke-width="0.300001" x1="558" y1="230" x2="510" y2= "436" />
    <line fill="none" stroke="#96ED79" stroke-width="0.300001" x1="564" y1="231" x2="515" y2= "437" />
    <line fill="none" stroke="#96ED79" stroke-width="0.300001" x1="567" y1="232" x2="519" y2= "438" />
    <line fill="none" stroke="#96ED79" stroke-width="0.300001" x1="571" y1="233" x2="523" y2= "439" />
    <line fill="none" stroke="#96ED79" stroke-width="0.300001" x1="577" y1="234" x2="528" y2= "440" />
    <line fill="none" stroke="#96ED79" stroke-width="0.300001" x1="580" y1="235" x2="532" y2= "441" />
    <line fill="none" stroke="#96ED79" stroke-width="0.300001" x1="585" y1="236" x2="536" y2= "442" />
    <line fill="none" stroke="#96ED79" stroke-width="0.300001" x1="590" y1="237" x2="542" y2= "443" />
    <line fill="none" stroke="#96ED79" stroke-width="0.300001" x1="594" y1="238" x2="545" y2= "444" />
    <line fill="none" stroke="#96ED79" stroke-width="0.300001" x1="599" y1="239" x2="551" y2= "445" />
    <line fill="none" stroke="#96ED79" stroke-width="0.300001" x1="605" y1="241" x2="556" y2= "446" />
    <line fill="none" stroke="#96ED79" stroke-width="0.300001" x1="609" y1="241" x2="560" y2= "447" />
    <line fill="none" stroke="#96ED79" stroke-width="0.300001" x1="614" y1="243" x2="566" y2= "449" />
    <line fill="none" stroke="#96ED79" stroke-width="0.300001" x1="617" y1="248" x2="256" y2= "163" />
    <line fill="none" stroke="#96ED79" stroke-width="0.300001" x1="616" y1="255" x2="254" y2= "170" />
    <line fill="none" stroke="#96ED79" stroke-width="0.300001" x1="615" y1="260" x2="253" y2= "175" />
    <line fill="none" stroke="#96ED79" stroke-width="0.300001" x1="613" y1="269" x2="251" y2= "183" />
    <line fill="none" stroke="#96ED79" stroke-width="0.300001" x1="611" y1="276" x2="249" y2= "191" />
    <line fill="none" stroke="#96ED79" stroke-width="0.300001" x1="609" y1="286" x2="247" y2= "201" />
    <line fill="none" stroke="#96ED79" stroke-width="0.300001" x1="610" y1="282" x2="248" y2= "197" />
    <line fill="none" stroke="#96ED79" stroke-width="0.300001" x1="607" y1="295" x2="245" y2= "209" />
    <line fill="none" stroke="#96ED79" stroke-width="0.300001" x1="607" y1="295" x2="245" y2= "209" />
    <line fill="none" stroke="#96ED79" stroke-width="0.300001" x1="605" y1="302" x2="243" y2= "216" />
    <line fill="none" stroke="#96ED79" stroke-width="0.300001" x1="604" y1="307" x2="242" y2= "221" />
    <line fill="none" stroke="#96ED79" stroke-width="0.300001" x1="602" y1="315" x2="240" y2= "230" />
    <line fill="none" stroke="#96ED79" stroke-width="0.300001" x1="600" y1="322" x2="238" y2= "237" />
    <line fill="none" stroke="#96ED79" stroke-width="0.300001" x1="598" y1="333" x2="236" y2= "247" />
    <line fill="none" stroke="#96ED79" stroke-width="0.300001" x1="599" y1="328" x2="237" y2= "243" />
    <line fill="none" stroke="#96ED79" stroke-width="0.300001" x1="596" y1="341" x2="234" y2= "256" />
    <line fill="none" stroke="#96ED79" stroke-width="0.300001" x1="595" y1="343" x2="233" y2= "258" />
    <line fill="none" stroke="#96ED79" stroke-width="0.300001" x1="593" y1="351" x2="232" y2= "265" />
    <line fill="none" stroke="#96ED79" stroke-width="0.300001" x1="592" y1="356" x2="231" y2= "270" />
    <line fill="none" stroke="#96ED79" stroke-width="0.300001" x1="590" y1="364" x2="229" y2= "279" />
    <line fill="none" stroke="#96ED79" stroke-width="0.300001" x1="589" y1="371" x2="227" y2= "286" />
    <line fill="none" stroke="#96ED79" stroke-width="0.300001" x1="586" y1="382" x2="224" y2= "296" />
    <line fill="none" stroke="#96ED79" stroke-width="0.300001" x1="587" y1="377" x2="225" y2= "292" />
    <line fill="none" stroke="#96ED79" stroke-width="0.300001" x1="584" y1="390" x2="222" y2= "304" />
    <line fill="none" stroke="#96ED79" stroke-width="0.300001" x1="583" y1="397" x2="221" y2= "311" />
    <line fill="none" stroke="#96ED79" stroke-width="0.300001" x1="581" y1="404" x2="219" y2= "319" />
    <line fill="none" stroke="#96ED79" stroke-width="0.300001" x1="580" y1="409" x2="218" y2= "323" />
    <line fill="none" stroke="#96ED79" stroke-width="0.300001" x1="578" y1="417" x2="216" y2= "332" />
    <line fill="none" stroke="#96ED79" stroke-width="0.300001" x1="576" y1="425" x2="214" y2= "339" />
    <line fill="none" stroke="#96ED79" stroke-width="0.300001" x1="574" y1="435" x2="212" y2= "350" />
    <line fill="none" stroke="#96ED79" stroke-width="0.300001" x1="575" y1="431" x2="213" y2= "345" />
    <line fill="none" stroke="#96ED79" stroke-width="0.300001" x1="572" y1="443" x2="210" y2= "358" />
   </g>
  </g>
  <path fill="white" fill-rule="nonzero" d="M580 338c4,1 6,4 5,7 -1,4 -4,6 -8,5l-329 -75c-4,-1 -6,-5 -5,-8 1,-3 4,-6 8,-5l329 76z"/>
 </g>
 <g id="landmarks-mz13">
  <metadata id="CorelCorpID_1Corel-Layer"/>
  <polygon id="m13lote18" fill="#35AD0E" points="478,349 512,357 496,426 462,418 "/>
  <polygon id="m13lote17" fill="#35AD0E" points="443,341 477,349 461,417 427,410 "/>
  <polygon id="m13lote16" fill="#35AD0E" points="441,340 407,333 391,401 425,409 "/>
  <polygon id="m13lote15" fill="#35AD0E" points="372,325 406,332 390,401 356,393 "/>
  <polygon id="m13lote14" fill="#35AD0E" points="370,324 336,316 320,385 354,393 "/>
  <polygon id="m13lote13" fill="#35AD0E" points="335,316 301,308 285,377 319,384 "/>
  <polygon id="m13lote12" fill="#35AD0E" points="299,307 266,300 250,369 284,376 "/>
  <polygon id="m13lote11" fill="#35AD0E" points="264,299 230,291 214,360 248,368 "/>
  <polygon id="m13lote10" fill="#35AD0E" points="294,171 260,164 244,233 278,240 "/>
  <polygon id="m13lote9" fill="#35AD0E" points="329,180 296,172 280,241 313,248 "/>
  <path id="m13lote8" fill="#35AD0E" d="M365 188l-34 -8 -16 69 33 8c0,0 16,-69 17,-69z"/>
  <polygon id="m13lote7" fill="#35AD0E" points="400,196 366,188 350,257 384,265 "/>
  <polygon id="m13lote6" fill="#35AD0E" points="435,204 402,197 386,265 419,273 "/>
  <polygon id="m13lote5" fill="#35AD0E" points="471,213 437,205 421,273 455,282 "/>
  <polygon id="m13lote4" fill="#35AD0E" points="506,221 472,213 456,282 490,290 "/>
  <polygon id="m13lote3" fill="#35AD0E" points="541,229 508,221 492,290 525,298 "/>
  <polygon id="m13lote2" fill="#35AD0E" points="577,238 543,230 527,299 560,306 "/>
  <polygon id="m13lote1" fill="#35AD0E" points="579,238 612,246 596,315 562,307 "/>
  <polygon id="m13lote20" fill="#35AD0E" points="549,366 583,374 567,442 533,434 "/>
  <polygon id="m13lote19" fill="#35AD0E" points="548,366 513,358 498,426 532,434 "/>
 </g>
</svg>
